<?xml version="1.0" encoding="UTF-8"?><svg id="Illustration" xmlns="http://www.w3.org/2000/svg" xmlns:xlink="http://www.w3.org/1999/xlink" viewBox="0 0 3710 3710"><defs><style>.cls-1{fill:#26264f;}.cls-2{fill:url(#linear-gradient-2);}.cls-3,.cls-4,.cls-5{fill:#fff;}.cls-6{fill:url(#linear-gradient-17);}.cls-7{fill:url(#linear-gradient-15);}.cls-8{fill:url(#linear-gradient-18);}.cls-9{fill:url(#linear-gradient-28);}.cls-10{fill:url(#linear-gradient-14);}.cls-11{fill:url(#linear-gradient-20);}.cls-12{fill:url(#linear-gradient-6);}.cls-4{opacity:.76;}.cls-5{opacity:.5;}.cls-13{fill:url(#linear-gradient-11);}.cls-14{fill:url(#linear-gradient-10);}.cls-15{fill:#91b3fa;}.cls-16{fill:url(#linear-gradient-16);}.cls-17{fill:url(#linear-gradient-21);}.cls-18{fill:url(#linear-gradient-25);}.cls-19{fill:url(#linear-gradient-5);}.cls-20{fill:url(#linear-gradient-7);}.cls-21{fill:url(#linear-gradient-24);}.cls-22{fill:url(#linear-gradient-9);}.cls-23{fill:url(#linear-gradient-22);}.cls-24{opacity:.73;}.cls-25{fill:url(#linear-gradient-3);}.cls-26{fill:url(#linear-gradient);}.cls-27{fill:url(#linear-gradient-27);}.cls-28{fill:#bdd0fb;}.cls-29{fill:url(#linear-gradient-23);}.cls-30{fill:url(#linear-gradient-19);}.cls-31{fill:url(#linear-gradient-4);}.cls-32{fill:url(#linear-gradient-8);}.cls-33{fill:url(#linear-gradient-12);}.cls-34{fill:url(#linear-gradient-13);}.cls-35{fill:url(#linear-gradient-26);}</style><linearGradient id="linear-gradient" x1="3477" y1="3292.83" x2="1397.94" y2="1473.66" gradientTransform="matrix(1, 0, 0, 1, 0, 0)" gradientUnits="userSpaceOnUse"><stop offset="0" stop-color="#dae3fe"/><stop offset="1" stop-color="#e9effd"/></linearGradient><linearGradient id="linear-gradient-2" x1="1224.24" y1="2992.67" x2="2146.13" y2="2424.94" gradientTransform="matrix(1, 0, 0, 1, 0, 0)" gradientUnits="userSpaceOnUse"><stop offset="0" stop-color="#ff928e"/><stop offset="1" stop-color="#fe7062"/></linearGradient><linearGradient id="linear-gradient-3" x1="2714.01" y1="1912.88" x2="4283.9" y2="863.97" xlink:href="#linear-gradient-2"/><linearGradient id="linear-gradient-4" x1="867.09" y1="2733.67" x2="1498.17" y2="2733.67" xlink:href="#linear-gradient-2"/><linearGradient id="linear-gradient-5" x1="1507.27" y1="2227.82" x2="498.85" y2="3250.24" xlink:href="#linear-gradient-2"/><linearGradient id="linear-gradient-6" x1="1139.69" y1="3823.47" x2="3191.75" y2="2436.76" xlink:href="#linear-gradient-2"/><linearGradient id="linear-gradient-7" x1="2819.26" y1="1913.06" x2="2218.21" y2="3799.1" xlink:href="#linear-gradient-2"/><linearGradient id="linear-gradient-8" x1="3239.92" y1="1289.11" x2="2347.34" y2="3202.72" gradientTransform="matrix(1, 0, 0, 1, 0, 0)" gradientUnits="userSpaceOnUse"><stop offset="0" stop-color="#4f52ff"/><stop offset="1" stop-color="#4042e2"/></linearGradient><linearGradient id="linear-gradient-9" x1="2402.41" y1="3261.29" x2="1847.93" y2="2307.86" xlink:href="#linear-gradient-8"/><linearGradient id="linear-gradient-10" x1="1991.57" y1="2113.43" x2="1071.96" y2="3202.09" xlink:href="#linear-gradient-8"/><linearGradient id="linear-gradient-11" x1="1382.57" y1="3316.21" x2="266.85" y2="2186.97" xlink:href="#linear-gradient-8"/><linearGradient id="linear-gradient-12" x1="1645.07" y1="1727.09" x2="2699.93" y2="415.28" xlink:href="#linear-gradient-2"/><linearGradient id="linear-gradient-13" x1="1125.39" y1="1770" x2="1215.46" y2="1770" gradientTransform="translate(2861.66) rotate(-180) scale(1 -1)" gradientUnits="userSpaceOnUse"><stop offset="0" stop-color="#09005d"/><stop offset="1" stop-color="#1a0f91"/></linearGradient><linearGradient id="linear-gradient-14" x1="1352.11" y1="1660.34" x2="1020.85" y2="1920.44" gradientTransform="translate(2861.66) rotate(-180) scale(1 -1)" xlink:href="#linear-gradient-8"/><linearGradient id="linear-gradient-15" x1="3518.55" y1="1664.31" x2="3500.57" y2="1821.23" gradientTransform="translate(-1811.84)" gradientUnits="userSpaceOnUse"><stop offset="0" stop-color="#febbba"/><stop offset="1" stop-color="#ff928e"/></linearGradient><linearGradient id="linear-gradient-16" x1="3823.54" y1="1737.53" x2="3503.2" y2="1989.06" gradientTransform="translate(-1811.84)" xlink:href="#linear-gradient-8"/><linearGradient id="linear-gradient-17" x1="3680.55" y1="1771.28" x2="3807.3" y2="1771.28" gradientTransform="translate(-1811.84)" xlink:href="#linear-gradient-13"/><linearGradient id="linear-gradient-18" x1="3707.96" y1="1684.39" x2="3691.14" y2="1831.18" xlink:href="#linear-gradient-15"/><linearGradient id="linear-gradient-19" x1="2116.88" y1="1025.38" x2="1477.61" y2="1866.78" gradientTransform="matrix(1, 0, 0, 1, 0, 0)" xlink:href="#linear-gradient-13"/><linearGradient id="linear-gradient-20" x1="1982.28" y1="500.88" x2="1556.24" y2="1261.67" xlink:href="#linear-gradient-8"/><linearGradient id="linear-gradient-21" x1="1719.53" y1="669.53" x2="1800.16" y2="669.53" gradientTransform="matrix(1, 0, 0, 1, 0, 0)" xlink:href="#linear-gradient-15"/><linearGradient id="linear-gradient-22" x1="10521.56" y1="-1794.3" x2="10662.81" y2="-1828.68" gradientTransform="translate(133.67 1095.14) rotate(-28.87)" xlink:href="#linear-gradient-15"/><linearGradient id="linear-gradient-23" x1="1622.33" y1="305.65" x2="1767.82" y2="305.65" gradientTransform="translate(133.67 1095.14) rotate(-28.87)" xlink:href="#linear-gradient-13"/><linearGradient id="linear-gradient-24" x1="10516.66" y1="-1814.78" x2="10657.91" y2="-1849.16" gradientTransform="translate(133.67 1095.14) rotate(-28.87)" xlink:href="#linear-gradient-15"/><linearGradient id="linear-gradient-25" x1="1772.57" y1="383.44" x2="1346.53" y2="1144.23" xlink:href="#linear-gradient-8"/><linearGradient id="linear-gradient-26" x1="1548.4" y1="430.02" x2="1502.87" y2="579.63" gradientTransform="matrix(1, 0, 0, 1, 0, 0)" xlink:href="#linear-gradient-15"/><linearGradient id="linear-gradient-27" x1="6011.25" y1="2146.67" x2="5585.21" y2="2907.45" gradientTransform="translate(4711.51 6622.85) rotate(-93.82) scale(1 -1)" xlink:href="#linear-gradient-8"/><linearGradient id="linear-gradient-28" x1="5931.19" y1="2041.58" x2="5885.65" y2="2191.18" gradientTransform="translate(4711.51 6622.85) rotate(-93.82) scale(1 -1)" xlink:href="#linear-gradient-15"/></defs><path class="cls-26" d="M3123.66,2348.06c-268.7,632.67-984.45,987.1-1605.14,891.5-101-15.56-377.89-61.9-623.05-280.52-471.93-420.87-572.86-1254.24-192.17-1841.54,277.08-427.45,773.77-669.76,1245.73-657.64,101.66,2.61,491.26,18.7,833.65,301.03,50.29,41.47,161.21,140.01,261.18,296.34,234.74,367.09,254.92,878.52,79.8,1290.84Z"/><g><path class="cls-28" d="M1474.6,2976.37s-281.09-1001.55-774.3-1539.16c-33.15-36.14-89.15-20.44-98.61,27.81-63.27,322.61-163.94,1298.82,872.91,1511.35Z"/><path class="cls-5" d="M1377.2,2913.84c2.43,2.34-.38,6.22-3.08,4.24-99.31-73.2-487.84-435.47-666.32-1172.82-.57-2.37,2.64-3.36,3.4-1.05,56.04,170.54,281.15,798.9,665.99,1169.63Z"/></g><g><path class="cls-28" d="M1479.63,2610.92s145.91-739.48-15.86-1252.85c-10.87-34.51-55.53-43.46-78.69-15.66-154.87,185.88-559.85,779.23,94.55,1268.52Z"/><path class="cls-5" d="M1432.73,2537.59c.9,2.34-2.4,3.87-3.61,1.68-44.57-80.84-192.99-445.88-65.61-980.61,.41-1.72,3-1.26,2.74,.48-19.11,128.7-76.46,609.22,66.48,978.45Z"/></g><g><path class="cls-28" d="M2023.13,2593.43s272.71-885.09,746.69-1346.37c31.86-31.01,85.39-14.69,94.26,28.87,59.34,291.31,152.03,1169.13-840.95,1317.5Z"/><path class="cls-5" d="M2116.57,2541.4c-2.34,2,.34,5.59,2.93,3.92,95.3-61.51,468.45-370.07,641.99-1022.83,.56-2.1-2.51-3.11-3.25-1.07-54.26,150.38-272.02,703.71-641.67,1019.99Z"/></g><g><path class="cls-2" d="M1651.74,1791.89h651.54c22.31,0,40.42,18.11,40.42,40.42v1415.54h-732.39V1832.31c0-22.31,18.11-40.42,40.42-40.42Z"/><path class="cls-25" d="M1465.7,1791.89h651.54c22.31,0,40.42,18.11,40.42,40.42v1415.54h-732.39V1832.31c0-22.31,18.11-40.42,40.42-40.42Z"/><g><path class="cls-4" d="M1474.38,2063.83c-2.8,0-5.07-2.27-5.07-5.07v-103.3c0-55.07,40.43-99.87,90.12-99.87h140.65c2.8,0,5.07,2.27,5.07,5.07s-2.27,5.07-5.07,5.07h-140.65c-44.1,0-79.98,40.25-79.98,89.72v103.3c0,2.8-2.27,5.07-5.07,5.07Z"/><path class="cls-4" d="M1474.38,2173.35c-2.8,0-5.07-2.27-5.07-5.07v-42.09c0-2.8,2.27-5.07,5.07-5.07s5.07,2.27,5.07,5.07v42.09c0,2.8-2.27,5.07-5.07,5.07Z"/></g></g><g><path class="cls-31" d="M907.52,2219.5h550.23c22.31,0,40.42,18.11,40.42,40.42v987.93H867.09v-987.93c0-22.31,18.11-40.42,40.42-40.42Z"/><path class="cls-19" d="M721.47,2219.5h550.23c22.31,0,40.42,18.11,40.42,40.42v987.93H681.05v-987.93c0-22.31,18.11-40.42,40.42-40.42Z"/><g class="cls-24"><path class="cls-3" d="M733.14,2512.41c-2.8,0-5.07-2.27-5.07-5.07v-121.87c0-64.47,47.29-116.91,105.41-116.91h165.94c2.8,0,5.07,2.27,5.07,5.07s-2.27,5.07-5.07,5.07h-165.94c-52.53,0-95.27,47.9-95.27,106.77v121.87c0,2.8-2.27,5.07-5.07,5.07Z"/><path class="cls-3" d="M733.14,2641.63c-2.8,0-5.07-2.27-5.07-5.07v-49.65c0-2.8,2.27-5.07,5.07-5.07s5.07,2.27,5.07,5.07v49.65c0,2.8-2.27,5.07-5.07,5.07Z"/></g></g><g><path class="cls-12" d="M2463.24,2219.5h550.23c22.31,0,40.42,18.11,40.42,40.42v987.93h-631.08v-987.93c0-22.31,18.11-40.42,40.42-40.42Z"/><path class="cls-20" d="M2277.19,2219.5h550.23c22.31,0,40.42,18.11,40.42,40.42v987.93h-631.08v-987.93c0-22.31,18.11-40.42,40.42-40.42Z"/><g><path class="cls-4" d="M2288.86,2512.41c-2.8,0-5.07-2.27-5.07-5.07v-121.87c0-64.47,47.29-116.91,105.41-116.91h165.94c2.8,0,5.07,2.27,5.07,5.07s-2.27,5.07-5.07,5.07h-165.94c-52.53,0-95.27,47.9-95.27,106.77v121.87c0,2.8-2.27,5.07-5.07,5.07Z"/><path class="cls-4" d="M2288.86,2641.63c-2.8,0-5.07-2.27-5.07-5.07v-49.65c0-2.8,2.27-5.07,5.07-5.07s5.07,2.27,5.07,5.07v49.65c0,2.8-2.27,5.07-5.07,5.07Z"/></g></g><g><path class="cls-32" d="M2210.37,3047.24l518-992.38h-106.13c-19.57,0-30.33-22.75-17.92-37.88l552.09-672.88c23.93-29.16,71.19-10.67,68.97,26.99l-38.81,658c-2.22,37.67-35.62,65.74-73.11,61.45l-73.99-8.47-513.96,1113.06c-13.38,28.98-42.38,47.53-74.3,47.53h-178.13l-62.71-195.41Z"/><path class="cls-22" d="M1782.09,2351.23l365.7,812.36c21.66,48.12,69.52,79.06,122.29,79.06h188.53c25.01,0,48.06-13.57,60.19-35.44l6.7-12.09h0c-20.26,0-38.8-11.36-48.01-29.4l-487.25-954.7-208.15,140.21Z"/><path class="cls-14" d="M2039.46,2307.45h0c-36.67-28.96-90.25-20.44-116.14,18.45l-537.68,807.82c-43.06,64.7-115.63,103.57-193.36,103.57h-75.66l-61.57-177.37s499.86-766.44,628.69-882.38c0,0,128.3-115.63,254.81-28.21,33.42,23.1,58.8,56.06,74.29,93.62l26.62,64.49Z"/><path class="cls-13" d="M470.25,2582.89s90-112.5,264.41-130c0,0,82.84,28.22,247.86,323.93,165.03,295.71,274.57,430.56,403.11,356.9l-10.64,17.67c-35.07,58.23-98.08,93.84-166.06,93.84h-71.09c-78.27,0-146.24-120.56-191.95-184.1-128.44-178.55-396.74-450.52-475.64-478.24Z"/><path class="cls-15" d="M3163.09,1579.08c-.19,0-.38,0-.58-.03-2.78-.31-4.78-2.83-4.47-5.61l3.64-32.13c.32-2.78,2.83-4.78,5.61-4.47,2.78,.31,4.78,2.83,4.47,5.61l-3.64,32.13c-.29,2.59-2.49,4.5-5.03,4.5Z"/><path class="cls-15" d="M2702.22,1984.64c-1.08,0-2.17-.34-3.09-1.05-2.22-1.71-2.63-4.89-.92-7.11l455.89-592.36c5.36-6.97,14.1-9.34,22.25-6.05,8.16,3.3,12.78,11.08,11.79,19.82l-8.04,71.01c-.32,2.78-2.84,4.77-5.61,4.47-2.78-.31-4.78-2.83-4.47-5.61l8.04-71.01c.56-4.96-2.48-8.04-5.52-9.27-3.04-1.23-7.37-1.13-10.41,2.83l-455.89,592.36c-1,1.3-2.5,1.98-4.02,1.98Z"/><path class="cls-15" d="M1667.99,2605.64c-.98,0-1.96-.28-2.83-.87-2.32-1.57-2.94-4.72-1.37-7.04l235.77-349.48c8.45-12.52,22.47-19.3,37.54-18.17,15.06,1.14,27.91,9.97,34.37,23.63,1.2,2.53,.12,5.55-2.41,6.75-2.53,1.21-5.55,.12-6.75-2.41-4.88-10.31-14.59-16.99-25.97-17.85-11.39-.87-21.98,4.27-28.36,13.73l-235.77,349.48c-.98,1.45-2.58,2.24-4.21,2.24Z"/><path class="cls-15" d="M1606.72,2696.45c-.98,0-1.96-.28-2.83-.87-2.32-1.57-2.94-4.72-1.37-7.04l15.12-22.41c1.56-2.32,4.72-2.93,7.04-1.37,2.32,1.56,2.94,4.72,1.37,7.04l-15.12,22.41c-.98,1.45-2.58,2.24-4.21,2.24Z"/></g><g><g><path class="cls-33" d="M2206.69,518.8c112.25-33.26,219.28-24.29,272.73-10.16,63.18,16.71,84.14,29.24,140.07,35.55,49.71,5.61,181.83-34.61,164.91-4.36-22.05,39.44-16.02,193.9,16.91,258.29,4.79,9.37-151.67,32.56-246.46,15.24-130.69-23.88-172.77-63.93-258.59-45.71-39.59,8.4-69.67,25.21-88.89,38.09,8.75-95.23-9.43-191.72-.67-286.95Z"/><path class="cls-1" d="M2208.1,1800.03c-2.8,0-5.07-2.27-5.07-5.07V488.18c0-2.8,2.27-5.07,5.07-5.07s5.07,2.27,5.07,5.07V1794.95c0,2.8-2.27,5.07-5.07,5.07Z"/></g><g><path class="cls-34" d="M1646.21,1800.18c-.01-.68,.03-1.36,.21-2.06,10.26-40.66,52.19-61.5,52.19-61.5l20.17,1.58c11.6,35.84,19.07,53.33,17.21,63.12-.05,.27-.14,.54-.21,.8-16.64,1.49-50.88,2.46-89.57-1.95Z"/><path class="cls-10" d="M1736.02,1802.12c-.9,3.27-3.31,5.81-6.4,6.46-23.67,4.98-61.29,.97-77.08-1.09-3.48-.46-6.03-3.68-6.09-7.32,38.69,4.4,72.93,3.43,89.57,1.95Z"/><path class="cls-7" d="M1682,1705.23l8.83,42.51c.65,3.12,3.04,5.45,5.94,5.72,3.55,.33,8.6,.53,13.68-.22,4.56-.67,7.73-5.3,6.92-10.27l-6.14-37.75h-29.23Z"/><path class="cls-16" d="M1906.89,1801.77c-21.54-.6-32.68-3.14-38.44-5.49-.01,2.14,0,4.32,.07,6.58,.07,2.41,1.86,4.34,4.06,4.33l118.28-.76c3.77-.02,5.98-4.4,4.34-7.86-15.51,1.28-55.01,4.15-88.31,3.22Z"/><path class="cls-6" d="M1995.47,1798.55c-.14-.3-.27-.61-.47-.89-10.45-14.6-37.05-43.66-89.62-56.26l-25.22-.8s-11.23,19.52-11.44,55.67c5.76,2.35,16.9,4.89,38.44,5.49,33.3,.93,72.8-1.93,88.31-3.22Z"/><path class="cls-8" d="M1875.48,1702.38c.28,1.88,3.74,30.45,5.08,41.53,.32,2.63,2.22,4.67,4.63,4.96,4.29,.51,11.24,.98,17.32-.27,3.28-.67,5.65-3.82,5.65-7.49v-44.85l-32.68,6.12Z"/><path class="cls-30" d="M1698.85,1146.97s-40.36,358.72-17.94,582.92c0,0,26.9,0,40.36-4.48,0,0,41.94-350.74,55.5-451.1,.51-3.78,5.91-3.96,6.65-.21,16.74,84.44,82.48,415.56,90.3,446.83,0,0,22.42,8.97,40.36,0,0,0-35.87-479.79-62.78-564.99l-152.46-8.97Z"/><path class="cls-11" d="M1618.14,729.96s135.67-18.32,259.48,.37c30.63,4.62,51.97,32.83,47.83,63.53l-11.36,84.07s-35.87,192.81-62.78,278.01c0,0-103.13,17.94-152.46-8.97,0,0-40.36-242.14-62.78-278.01,0,0-22.42-94.16-17.94-139Z"/><path class="cls-17" d="M1736.51,607.43l-16.97,114.79s47.42,21.79,80.63-.93l-7.15-81.01-56.51-32.84Z"/><g><path class="cls-23" d="M1809.59,532.69c.53,.97,10.77,58.85,17.06,94.69,2.6,14.8-8.28,28.56-23.29,29.44l-13.74,.81c-25.25,1.49-47.48-16.48-51.31-41.48l-9.94-64.91s68.22-42.1,81.2-18.56Z"/><path class="cls-29" d="M1713.57,551.4c-5.27-6.55-9.86-17.14,1.36-28.28,11.36-11.28,24.24-8.47,32.42-4.68,3.62,1.67,8.08,.93,10.65-2.11,1.14-1.35,2.84-2.27,5.36-1.99,4.75,.53,8.99-2.6,9.56-7.35,.97-8.14,5.3-17.72,19.69-20.5,26.4-5.1,39.57,21.32,39.09,39.88-.47,18.57-29.4,22.47-45.82,19.39-12.06-2.26-22.48,8.33-27.17,14.12-1.7,2.1-2.34,4.85-1.72,7.48l4.17,17.94c-2.89,5.58-5.73,11.27-9.79,16.03-2.92,3.43-6.13,5.32-9.53,6.12-4.92-9.16-18.69-10.72-25.08-10.92-2.45-.08-4.73-1.16-6.34-3-4.83-5.53-12.38-17.88,2.08-30.01,3.6-3.01,4.01-8.44,1.07-12.1Z"/><path class="cls-21" d="M1746.61,626.64s-.57-32.39-13.68-35.43c-13.11-3.04-27.25,6.44-16.04,25.83,13.95,24.12,29.72,9.6,29.72,9.6Z"/></g><path class="cls-18" d="M1694.83,884.79s-385.01-104.8-193.84-374.32l12.93,18.31s-57.6,182.55,133.2,199.89c0,0,49.42,127.45,47.7,156.11Z"/><path class="cls-35" d="M1499.69,511.86s-4.34-52.04,21.68-56.37c26.02-4.34,34.69,21.68,39.03,34.69,4.34,13.01-39.03,39.03-47.7,39.03s-13.01-17.35-13.01-17.35Z"/><path class="cls-27" d="M1902.32,913.57s49.77,196.95,299.39-20.02l-19.14-11.68s-219.77,155.92-258.5-110.05c0,0-21.75,117.83-21.75,141.75Z"/><path class="cls-9" d="M2200.41,894.94s52.21,.86,54.8-25.39c2.59-26.25-23.95-33.17-37.22-36.63-13.27-3.46-36.34,41.55-35.76,50.2,.58,8.65,18.18,11.82,18.18,11.82Z"/></g></g></svg>